<?xml version="1.0" encoding="UTF-8" standalone="no"?><!DOCTYPE svg PUBLIC "-//W3C//DTD SVG 1.1//EN" "http://www.w3.org/Graphics/SVG/1.1/DTD/svg11.dtd"><svg width="100%" height="100%" viewBox="0 0 900 300" version="1.1" xmlns="http://www.w3.org/2000/svg" xmlns:xlink="http://www.w3.org/1999/xlink" xml:space="preserve" xmlns:serif="http://www.serif.com/" style="fill-rule:evenodd;clip-rule:evenodd;stroke-linejoin:round;stroke-miterlimit:2;"><rect id="banner" x="0" y="0" width="900" height="300" style="fill:none;"/><path d="M900,8c0,-4.415 -3.585,-8 -8,-8l-884,0c-4.415,0 -8,3.585 -8,8l0,284c0,4.415 3.585,8 8,8l884,0c4.415,0 8,-3.585 8,-8l0,-284Z" style="fill:#fff;"/><clipPath id="_clip1"><path d="M900,8c0,-4.415 -3.585,-8 -8,-8l-884,0c-4.415,0 -8,3.585 -8,8l0,284c0,4.415 3.585,8 8,8l884,0c4.415,0 8,-3.585 8,-8l0,-284Z"/></clipPath><g clip-path="url(#_clip1)"><circle cx="-52.238" cy="529.146" r="379.146" style="fill:#f7f7f7;"/><circle cx="1077.78" cy="-79.146" r="379.146" style="fill:#f7f7f7;"/><circle cx="200.789" cy="-301.367" r="379.146" style="fill:#f7f7f7;fill-opacity:0.62;"/><circle cx="441.253" cy="438.934" r="379.146" style="fill:#f7f7f7;fill-opacity:0.62;"/></g><g><path d="M211.972,110.19c0.894,-0.521 2,-0.521 2.894,0l8.614,5.025c1.37,0.799 1.833,2.558 1.034,3.927c-0.799,1.37 -2.557,1.833 -3.927,1.034l-7.168,-4.181l-7.168,4.181c-1.37,0.799 -3.128,0.336 -3.927,-1.034c-0.799,-1.369 -0.336,-3.128 1.034,-3.927l8.614,-5.025Zm-21.916,16.109c0.799,1.37 0.336,3.128 -1.034,3.927l-4.362,2.545l4.362,2.545c1.37,0.799 1.833,2.557 1.034,3.927c-0.799,1.37 -2.558,1.832 -3.927,1.033l-4.297,-2.506l0,3.615c0,1.586 -1.285,2.872 -2.871,2.872c-1.586,-0 -2.872,-1.286 -2.872,-2.872l0,-8.614c0,-1.021 0.543,-1.966 1.425,-2.48l8.615,-5.026c1.369,-0.799 3.128,-0.336 3.927,1.034Zm46.726,-0c0.799,-1.37 2.558,-1.833 3.927,-1.034l8.615,5.026c0.882,0.514 1.425,1.459 1.425,2.48l-0,8.614c-0,1.586 -1.286,2.872 -2.872,2.872c-1.586,-0 -2.871,-1.286 -2.871,-2.872l-0,-3.615l-4.297,2.506c-1.369,0.799 -3.128,0.337 -3.927,-1.033c-0.799,-1.37 -0.336,-3.128 1.034,-3.927l4.362,-2.545l-4.362,-2.545c-1.37,-0.799 -1.833,-2.557 -1.034,-3.927Zm-34.458,20.1c0.799,-1.369 2.557,-1.832 3.927,-1.033l7.168,4.181l7.168,-4.181c1.37,-0.799 3.128,-0.336 3.927,1.033c0.799,1.37 0.336,3.128 -1.034,3.928l-7.189,4.194l-0,6.965c-0,1.586 -1.286,2.871 -2.872,2.871c-1.586,0 -2.871,-1.285 -2.871,-2.871l-0,-6.965l-7.19,-4.194c-1.37,-0.8 -1.833,-2.558 -1.034,-3.928Zm-23.363,9.344c1.586,-0 2.871,1.286 2.871,2.871l0,6.966l7.19,4.194c1.37,0.799 1.833,2.557 1.034,3.927c-0.799,1.37 -2.558,1.832 -3.927,1.033l-8.615,-5.025c-0.882,-0.514 -1.425,-1.459 -1.425,-2.48l0,-8.615c0,-1.585 1.286,-2.871 2.872,-2.871Zm68.916,-0c1.586,-0 2.872,1.286 2.872,2.871l-0,8.615c-0,1.021 -0.543,1.966 -1.425,2.48l-8.615,5.025c-1.369,0.799 -3.128,0.337 -3.927,-1.033c-0.799,-1.37 -0.336,-3.128 1.034,-3.927l7.19,-4.194l-0,-6.966c-0,-1.585 1.285,-2.871 2.871,-2.871Zm-34.458,20.1c1.586,0 2.872,1.286 2.872,2.872l-0,3.615l4.296,-2.506c1.37,-0.799 3.128,-0.336 3.927,1.034c0.799,1.369 0.336,3.128 -1.034,3.927l-8.614,5.025c-0.894,0.522 -2,0.522 -2.894,-0l-8.614,-5.025c-1.37,-0.799 -1.833,-2.558 -1.034,-3.927c0.799,-1.37 2.557,-1.833 3.927,-1.034l4.297,2.506l-0,-3.615c-0,-1.586 1.285,-2.872 2.871,-2.872Z"/><g><path d="M290.094,136.376l0,9.698l14.802,0l-0,-9.698c-0,-1.385 0.312,-2.424 0.935,-3.117c0.623,-0.693 1.443,-1.039 2.459,-1.039c1.032,-0 1.867,0.342 2.506,1.027c0.639,0.685 0.958,1.728 0.958,3.129l-0,26.671c-0,1.4 -0.323,2.447 -0.97,3.14c-0.646,0.693 -1.478,1.039 -2.494,1.039c-1.031,0 -1.855,-0.35 -2.471,-1.051c-0.615,-0.7 -0.923,-1.743 -0.923,-3.128l-0,-11.384l-14.802,-0l0,11.384c0,1.4 -0.323,2.447 -0.97,3.14c-0.646,0.693 -1.477,1.039 -2.493,1.039c-1.032,0 -1.855,-0.35 -2.471,-1.051c-0.616,-0.7 -0.924,-1.743 -0.924,-3.128l0,-26.671c0,-1.385 0.304,-2.424 0.912,-3.117c0.608,-0.693 1.436,-1.039 2.483,-1.039c1.031,-0 1.866,0.342 2.505,1.027c0.639,0.685 0.958,1.728 0.958,3.129Z" style="fill-rule:nonzero;"/><path d="M336.277,155.958l-12.331,-0c0.016,1.431 0.304,2.694 0.866,3.787c0.562,1.093 1.309,1.916 2.24,2.47c0.931,0.554 1.959,0.832 3.083,0.832c0.754,-0 1.443,-0.089 2.066,-0.266c0.624,-0.177 1.228,-0.454 1.813,-0.831c0.585,-0.377 1.124,-0.782 1.616,-1.213c0.493,-0.431 1.132,-1.016 1.917,-1.754c0.323,-0.278 0.785,-0.416 1.385,-0.416c0.647,-0 1.17,0.177 1.571,0.531c0.4,0.354 0.6,0.854 0.6,1.501c-0,0.569 -0.223,1.235 -0.67,1.997c-0.446,0.762 -1.12,1.494 -2.02,2.194c-0.901,0.7 -2.032,1.282 -3.395,1.743c-1.362,0.462 -2.928,0.693 -4.699,0.693c-4.048,0 -7.196,-1.154 -9.444,-3.464c-2.248,-2.309 -3.371,-5.441 -3.371,-9.398c-0,-1.862 0.277,-3.59 0.831,-5.184c0.554,-1.593 1.362,-2.959 2.425,-4.098c1.062,-1.14 2.37,-2.013 3.925,-2.621c1.555,-0.608 3.279,-0.912 5.173,-0.912c2.463,-0 4.575,0.519 6.338,1.558c1.763,1.039 3.083,2.382 3.96,4.03c0.878,1.647 1.316,3.325 1.316,5.034c0,1.585 -0.454,2.613 -1.362,3.082c-0.908,0.47 -2.186,0.705 -3.833,0.705Zm-12.331,-3.58l11.43,0c-0.154,-2.155 -0.735,-3.767 -1.743,-4.837c-1.008,-1.07 -2.336,-1.605 -3.983,-1.605c-1.571,-0 -2.86,0.543 -3.868,1.628c-1.008,1.085 -1.62,2.69 -1.836,4.814Z" style="fill-rule:nonzero;"/><path d="M353.041,158.128l0,5.265c0,1.278 -0.3,2.236 -0.9,2.875c-0.601,0.639 -1.363,0.958 -2.286,0.958c-0.909,0 -1.655,-0.323 -2.24,-0.97c-0.585,-0.646 -0.878,-1.601 -0.878,-2.863l0,-17.549c0,-2.833 1.024,-4.249 3.071,-4.249c1.047,-0 1.802,0.331 2.263,0.993c0.462,0.662 0.716,1.639 0.762,2.932c0.755,-1.293 1.528,-2.27 2.321,-2.932c0.793,-0.662 1.851,-0.993 3.175,-0.993c1.324,-0 2.609,0.331 3.856,0.993c1.247,0.662 1.871,1.539 1.871,2.632c-0,0.77 -0.266,1.405 -0.797,1.905c-0.531,0.5 -1.104,0.751 -1.72,0.751c-0.231,-0 -0.789,-0.143 -1.674,-0.428c-0.886,-0.284 -1.667,-0.427 -2.344,-0.427c-0.924,0 -1.678,0.243 -2.263,0.728c-0.585,0.485 -1.039,1.204 -1.362,2.159c-0.324,0.954 -0.547,2.089 -0.67,3.406c-0.123,1.316 -0.185,2.921 -0.185,4.814Z" style="fill-rule:nonzero;"/><path d="M389.295,154.41c-0,1.879 -0.293,3.61 -0.878,5.196c-0.585,1.586 -1.432,2.948 -2.54,4.087c-1.108,1.139 -2.432,2.013 -3.972,2.621c-1.539,0.608 -3.271,0.912 -5.195,0.912c-1.909,0 -3.626,-0.308 -5.15,-0.924c-1.524,-0.615 -2.844,-1.497 -3.96,-2.643c-1.116,-1.147 -1.963,-2.502 -2.54,-4.065c-0.577,-1.562 -0.866,-3.29 -0.866,-5.184c0,-1.908 0.293,-3.656 0.878,-5.241c0.585,-1.586 1.424,-2.941 2.517,-4.064c1.093,-1.124 2.417,-1.99 3.971,-2.598c1.555,-0.608 3.272,-0.912 5.15,-0.912c1.909,-0 3.64,0.308 5.195,0.923c1.555,0.616 2.887,1.494 3.995,2.633c1.108,1.139 1.951,2.494 2.529,4.064c0.577,1.57 0.866,3.302 0.866,5.195Zm-6.327,0c-0,-2.57 -0.566,-4.572 -1.698,-6.003c-1.131,-1.432 -2.651,-2.148 -4.56,-2.148c-1.232,0 -2.317,0.32 -3.256,0.958c-0.939,0.639 -1.663,1.582 -2.171,2.829c-0.508,1.247 -0.762,2.702 -0.762,4.364c0,1.648 0.25,3.087 0.751,4.319c0.5,1.231 1.216,2.174 2.147,2.828c0.932,0.654 2.028,0.982 3.291,0.982c1.909,-0 3.429,-0.72 4.56,-2.159c1.132,-1.44 1.698,-3.43 1.698,-5.97Z" style="fill-rule:nonzero;"/><path d="M394.975,163.047l-0,-26.671c-0,-1.385 0.316,-2.424 0.947,-3.117c0.631,-0.693 1.447,-1.039 2.447,-1.039c1.032,-0 1.867,0.342 2.506,1.027c0.639,0.685 0.958,1.728 0.958,3.129l0,26.671c0,1.4 -0.319,2.447 -0.958,3.14c-0.639,0.693 -1.474,1.039 -2.506,1.039c-0.985,0 -1.797,-0.35 -2.436,-1.051c-0.639,-0.7 -0.958,-1.743 -0.958,-3.128Z" style="fill-rule:nonzero;"/><path d="M431.667,159.421c0,0.785 -0.235,1.624 -0.704,2.517c-0.47,0.893 -1.186,1.744 -2.148,2.552c-0.962,0.808 -2.174,1.458 -3.637,1.951c-1.462,0.493 -3.109,0.739 -4.941,0.739c-3.895,-0 -6.935,-1.135 -9.121,-3.406c-2.186,-2.271 -3.279,-5.315 -3.279,-9.133c-0,-2.586 0.5,-4.872 1.501,-6.858c1,-1.986 2.447,-3.521 4.341,-4.606c1.893,-1.086 4.156,-1.628 6.789,-1.628c1.632,-0 3.129,0.238 4.491,0.715c1.362,0.478 2.517,1.093 3.464,1.848c0.946,0.754 1.67,1.558 2.17,2.413c0.501,0.854 0.751,1.651 0.751,2.39c-0,0.754 -0.281,1.393 -0.843,1.916c-0.562,0.524 -1.243,0.785 -2.044,0.785c-0.523,0 -0.958,-0.134 -1.304,-0.404c-0.347,-0.269 -0.735,-0.704 -1.166,-1.304c-0.77,-1.17 -1.574,-2.048 -2.413,-2.633c-0.839,-0.585 -1.905,-0.877 -3.199,-0.877c-1.862,-0 -3.363,0.727 -4.502,2.182c-1.14,1.455 -1.709,3.444 -1.709,5.969c-0,1.185 0.146,2.274 0.439,3.267c0.292,0.993 0.715,1.84 1.27,2.54c0.554,0.701 1.223,1.232 2.009,1.594c0.785,0.362 1.647,0.542 2.586,0.542c1.262,0 2.344,-0.292 3.244,-0.877c0.901,-0.585 1.697,-1.478 2.39,-2.679c0.385,-0.708 0.801,-1.262 1.247,-1.662c0.446,-0.4 0.993,-0.601 1.639,-0.601c0.77,0 1.409,0.293 1.917,0.878c0.508,0.585 0.762,1.208 0.762,1.87Z" style="fill-rule:nonzero;"/><path d="M460.762,154.41c0,1.879 -0.292,3.61 -0.877,5.196c-0.585,1.586 -1.432,2.948 -2.54,4.087c-1.109,1.139 -2.433,2.013 -3.972,2.621c-1.54,0.608 -3.271,0.912 -5.196,0.912c-1.909,0 -3.625,-0.308 -5.149,-0.924c-1.524,-0.615 -2.844,-1.497 -3.96,-2.643c-1.116,-1.147 -1.963,-2.502 -2.54,-4.065c-0.578,-1.562 -0.866,-3.29 -0.866,-5.184c-0,-1.908 0.292,-3.656 0.877,-5.241c0.585,-1.586 1.424,-2.941 2.517,-4.064c1.093,-1.124 2.417,-1.99 3.972,-2.598c1.555,-0.608 3.271,-0.912 5.149,-0.912c1.909,-0 3.641,0.308 5.196,0.923c1.555,0.616 2.886,1.494 3.995,2.633c1.108,1.139 1.951,2.494 2.528,4.064c0.577,1.57 0.866,3.302 0.866,5.195Zm-6.327,0c0,-2.57 -0.566,-4.572 -1.697,-6.003c-1.132,-1.432 -2.652,-2.148 -4.561,-2.148c-1.231,0 -2.316,0.32 -3.256,0.958c-0.939,0.639 -1.662,1.582 -2.17,2.829c-0.508,1.247 -0.762,2.702 -0.762,4.364c-0,1.648 0.25,3.087 0.75,4.319c0.501,1.231 1.216,2.174 2.148,2.828c0.931,0.654 2.028,0.982 3.29,0.982c1.909,-0 3.429,-0.72 4.561,-2.159c1.131,-1.44 1.697,-3.43 1.697,-5.97Z" style="fill-rule:nonzero;"/><path d="M471.453,145.082l0,0.762c1.109,-1.463 2.321,-2.537 3.637,-3.222c1.316,-0.685 2.829,-1.027 4.538,-1.027c1.662,-0 3.148,0.362 4.456,1.085c1.309,0.724 2.286,1.747 2.933,3.071c0.416,0.77 0.685,1.601 0.808,2.494c0.123,0.893 0.185,2.032 0.185,3.418l-0,11.73c-0,1.262 -0.289,2.217 -0.866,2.863c-0.577,0.647 -1.328,0.97 -2.251,0.97c-0.94,0 -1.702,-0.331 -2.287,-0.993c-0.585,-0.662 -0.877,-1.609 -0.877,-2.84l-0,-10.507c-0,-2.078 -0.289,-3.667 -0.866,-4.768c-0.577,-1.101 -1.728,-1.651 -3.452,-1.651c-1.124,0 -2.148,0.335 -3.071,1.005c-0.924,0.669 -1.601,1.589 -2.032,2.759c-0.308,0.939 -0.462,2.694 -0.462,5.265l-0,7.897c-0,1.278 -0.296,2.236 -0.889,2.875c-0.593,0.639 -1.359,0.958 -2.298,0.958c-0.908,0 -1.655,-0.331 -2.24,-0.993c-0.585,-0.662 -0.877,-1.609 -0.877,-2.84l-0,-18.219c-0,-1.201 0.262,-2.098 0.785,-2.69c0.524,-0.593 1.239,-0.889 2.148,-0.889c0.554,-0 1.054,0.131 1.501,0.392c0.446,0.262 0.804,0.655 1.073,1.178c0.27,0.523 0.404,1.162 0.404,1.917Z" style="fill-rule:nonzero;"/><path d="M514.588,158.983c-0,1.739 -0.423,3.228 -1.27,4.468c-0.847,1.239 -2.098,2.178 -3.752,2.817c-1.655,0.639 -3.668,0.958 -6.039,0.958c-2.263,0 -4.202,-0.346 -5.819,-1.039c-1.616,-0.693 -2.809,-1.559 -3.579,-2.598c-0.77,-1.039 -1.155,-2.082 -1.155,-3.129c0,-0.692 0.247,-1.285 0.739,-1.778c0.493,-0.492 1.116,-0.739 1.871,-0.739c0.662,0 1.17,0.162 1.524,0.485c0.354,0.324 0.693,0.778 1.016,1.363c0.646,1.123 1.42,1.962 2.32,2.517c0.901,0.554 2.129,0.831 3.684,0.831c1.262,-0 2.297,-0.281 3.105,-0.843c0.809,-0.562 1.213,-1.204 1.213,-1.928c-0,-1.108 -0.42,-1.917 -1.259,-2.425c-0.839,-0.508 -2.22,-0.993 -4.145,-1.454c-2.17,-0.539 -3.937,-1.105 -5.299,-1.698c-1.363,-0.592 -2.452,-1.373 -3.268,-2.343c-0.816,-0.97 -1.223,-2.163 -1.223,-3.579c-0,-1.263 0.377,-2.456 1.131,-3.58c0.754,-1.123 1.867,-2.02 3.337,-2.69c1.47,-0.669 3.244,-1.004 5.322,-1.004c1.632,-0 3.098,0.169 4.399,0.508c1.301,0.338 2.386,0.793 3.256,1.362c0.87,0.57 1.532,1.201 1.986,1.894c0.454,0.692 0.681,1.37 0.681,2.032c0,0.723 -0.242,1.316 -0.727,1.778c-0.485,0.462 -1.174,0.692 -2.067,0.692c-0.647,0 -1.197,-0.184 -1.651,-0.554c-0.454,-0.369 -0.974,-0.923 -1.559,-1.662c-0.477,-0.616 -1.039,-1.109 -1.685,-1.478c-0.647,-0.37 -1.524,-0.554 -2.633,-0.554c-1.139,-0 -2.086,0.242 -2.84,0.727c-0.754,0.485 -1.131,1.089 -1.131,1.813c-0,0.662 0.277,1.204 0.831,1.628c0.554,0.423 1.301,0.773 2.24,1.05c0.939,0.277 2.232,0.616 3.879,1.016c1.955,0.478 3.552,1.047 4.791,1.709c1.24,0.662 2.179,1.443 2.818,2.344c0.638,0.9 0.958,1.928 0.958,3.083Z" style="fill-rule:nonzero;"/><path d="M521.746,167.226c-0.954,0 -1.778,-0.308 -2.471,-0.924c-0.692,-0.615 -1.039,-1.477 -1.039,-2.586c0,-0.939 0.331,-1.747 0.993,-2.424c0.662,-0.678 1.478,-1.016 2.448,-1.016c0.97,-0 1.797,0.334 2.482,1.004c0.685,0.67 1.028,1.482 1.028,2.436c-0,1.093 -0.343,1.951 -1.028,2.575c-0.685,0.623 -1.489,0.935 -2.413,0.935Z" style="fill-rule:nonzero;"/><path d="M554.467,162.816l-1.617,-4.249l-13.762,-0l-1.617,4.341c-0.631,1.693 -1.17,2.836 -1.616,3.429c-0.446,0.593 -1.178,0.889 -2.194,0.889c-0.862,0 -1.624,-0.315 -2.286,-0.947c-0.662,-0.631 -0.993,-1.347 -0.993,-2.147c0,-0.462 0.077,-0.939 0.231,-1.432c0.154,-0.492 0.408,-1.177 0.762,-2.055l8.66,-21.983c0.246,-0.631 0.542,-1.389 0.889,-2.274c0.346,-0.885 0.715,-1.621 1.108,-2.206c0.392,-0.585 0.908,-1.058 1.547,-1.42c0.639,-0.361 1.428,-0.542 2.367,-0.542c0.954,-0 1.751,0.181 2.39,0.542c0.639,0.362 1.154,0.828 1.547,1.397c0.393,0.57 0.723,1.182 0.993,1.836c0.269,0.654 0.612,1.528 1.027,2.621l8.844,21.844c0.693,1.663 1.04,2.871 1.04,3.626c-0,0.785 -0.328,1.504 -0.982,2.159c-0.654,0.654 -1.443,0.981 -2.367,0.981c-0.539,0 -1,-0.096 -1.385,-0.289c-0.385,-0.192 -0.708,-0.454 -0.97,-0.785c-0.262,-0.331 -0.543,-0.839 -0.843,-1.524c-0.3,-0.685 -0.558,-1.289 -0.773,-1.812Zm-13.578,-9.398l10.114,-0l-5.103,-13.971l-5.011,13.971Z" style="fill-rule:nonzero;"/><path d="M569.661,145.52l5.103,14.317l5.496,-14.94c0.431,-1.201 0.854,-2.051 1.27,-2.552c0.415,-0.5 1.046,-0.75 1.893,-0.75c0.801,-0 1.482,0.269 2.044,0.808c0.562,0.539 0.842,1.162 0.842,1.87c0,0.277 -0.05,0.601 -0.15,0.97c-0.1,0.37 -0.215,0.716 -0.346,1.039c-0.131,0.324 -0.281,0.693 -0.45,1.109l-6.05,15.009c-0.17,0.431 -0.389,0.978 -0.658,1.64c-0.27,0.661 -0.57,1.227 -0.901,1.697c-0.331,0.469 -0.739,0.835 -1.224,1.097c-0.485,0.261 -1.073,0.392 -1.766,0.392c-0.893,0 -1.605,-0.204 -2.136,-0.612c-0.531,-0.408 -0.924,-0.854 -1.178,-1.339c-0.254,-0.485 -0.681,-1.443 -1.281,-2.875l-6.004,-14.848c-0.139,-0.369 -0.281,-0.739 -0.427,-1.108c-0.147,-0.37 -0.27,-0.747 -0.37,-1.132c-0.1,-0.384 -0.15,-0.715 -0.15,-0.992c0,-0.431 0.131,-0.859 0.393,-1.282c0.261,-0.423 0.623,-0.77 1.085,-1.039c0.462,-0.27 0.962,-0.404 1.501,-0.404c1.047,-0 1.766,0.3 2.159,0.9c0.393,0.601 0.827,1.609 1.305,3.025Z" style="fill-rule:nonzero;"/><path d="M606.145,163.67c-1.524,1.185 -2.998,2.074 -4.422,2.667c-1.424,0.593 -3.021,0.889 -4.792,0.889c-1.616,0 -3.036,-0.319 -4.26,-0.958c-1.224,-0.639 -2.167,-1.505 -2.829,-2.598c-0.661,-1.093 -0.992,-2.278 -0.992,-3.556c-0,-1.724 0.546,-3.194 1.639,-4.41c1.093,-1.217 2.594,-2.032 4.503,-2.448c0.4,-0.092 1.393,-0.3 2.979,-0.624c1.585,-0.323 2.944,-0.619 4.075,-0.889c1.132,-0.269 2.359,-0.596 3.683,-0.981c-0.077,-1.663 -0.412,-2.883 -1.004,-3.66c-0.593,-0.777 -1.821,-1.166 -3.683,-1.166c-1.601,-0 -2.806,0.223 -3.614,0.67c-0.808,0.446 -1.501,1.116 -2.078,2.009c-0.578,0.892 -0.985,1.481 -1.224,1.766c-0.239,0.285 -0.751,0.427 -1.536,0.427c-0.708,0 -1.32,-0.227 -1.835,-0.681c-0.516,-0.454 -0.774,-1.035 -0.774,-1.743c0,-1.109 0.393,-2.186 1.178,-3.233c0.785,-1.047 2.009,-1.909 3.671,-2.586c1.663,-0.678 3.733,-1.016 6.212,-1.016c2.771,-0 4.949,0.327 6.535,0.981c1.585,0.654 2.705,1.689 3.359,3.106c0.655,1.416 0.982,3.294 0.982,5.634c-0,1.478 -0.004,2.732 -0.012,3.764c-0.008,1.031 -0.019,2.178 -0.034,3.441c-0,1.185 0.196,2.42 0.588,3.706c0.393,1.285 0.589,2.113 0.589,2.482c0,0.647 -0.304,1.235 -0.912,1.766c-0.608,0.532 -1.297,0.797 -2.067,0.797c-0.646,0 -1.285,-0.304 -1.916,-0.912c-0.631,-0.608 -1.301,-1.489 -2.009,-2.644Zm-0.416,-9.121c-0.923,0.339 -2.267,0.697 -4.029,1.074c-1.763,0.377 -2.983,0.654 -3.66,0.831c-0.677,0.177 -1.324,0.523 -1.94,1.039c-0.616,0.516 -0.923,1.236 -0.923,2.159c-0,0.955 0.361,1.767 1.085,2.436c0.723,0.67 1.67,1.005 2.84,1.005c1.247,-0 2.398,-0.273 3.452,-0.82c1.055,-0.546 1.828,-1.251 2.321,-2.113c0.569,-0.954 0.854,-2.524 0.854,-4.71l0,-0.901Z" style="fill-rule:nonzero;"/><path d="M618.314,163.393l0,-27.34c0,-1.262 0.281,-2.217 0.843,-2.863c0.562,-0.647 1.32,-0.97 2.274,-0.97c0.955,-0 1.725,0.319 2.309,0.958c0.585,0.639 0.878,1.597 0.878,2.875l-0,27.34c-0,1.278 -0.296,2.236 -0.889,2.875c-0.593,0.639 -1.359,0.958 -2.298,0.958c-0.923,0 -1.674,-0.331 -2.251,-0.993c-0.577,-0.662 -0.866,-1.609 -0.866,-2.84Z" style="fill-rule:nonzero;"/><path d="M654.729,154.41c0,1.879 -0.292,3.61 -0.877,5.196c-0.585,1.586 -1.432,2.948 -2.541,4.087c-1.108,1.139 -2.432,2.013 -3.971,2.621c-1.54,0.608 -3.271,0.912 -5.196,0.912c-1.909,0 -3.625,-0.308 -5.149,-0.924c-1.524,-0.615 -2.844,-1.497 -3.96,-2.643c-1.116,-1.147 -1.963,-2.502 -2.54,-4.065c-0.578,-1.562 -0.866,-3.29 -0.866,-5.184c-0,-1.908 0.292,-3.656 0.877,-5.241c0.585,-1.586 1.424,-2.941 2.517,-4.064c1.093,-1.124 2.417,-1.99 3.972,-2.598c1.555,-0.608 3.271,-0.912 5.149,-0.912c1.909,-0 3.641,0.308 5.196,0.923c1.555,0.616 2.886,1.494 3.995,2.633c1.108,1.139 1.951,2.494 2.528,4.064c0.577,1.57 0.866,3.302 0.866,5.195Zm-6.327,0c-0,-2.57 -0.566,-4.572 -1.697,-6.003c-1.132,-1.432 -2.652,-2.148 -4.561,-2.148c-1.231,0 -2.317,0.32 -3.256,0.958c-0.939,0.639 -1.662,1.582 -2.17,2.829c-0.508,1.247 -0.762,2.702 -0.762,4.364c-0,1.648 0.25,3.087 0.75,4.319c0.501,1.231 1.216,2.174 2.148,2.828c0.931,0.654 2.028,0.982 3.29,0.982c1.909,-0 3.429,-0.72 4.561,-2.159c1.131,-1.44 1.697,-3.43 1.697,-5.97Z" style="fill-rule:nonzero;"/><path d="M665.42,145.082l0,0.762c1.109,-1.463 2.321,-2.537 3.637,-3.222c1.316,-0.685 2.829,-1.027 4.538,-1.027c1.662,-0 3.148,0.362 4.456,1.085c1.309,0.724 2.286,1.747 2.933,3.071c0.415,0.77 0.685,1.601 0.808,2.494c0.123,0.893 0.185,2.032 0.185,3.418l-0,11.73c-0,1.262 -0.289,2.217 -0.866,2.863c-0.577,0.647 -1.328,0.97 -2.252,0.97c-0.939,0 -1.701,-0.331 -2.286,-0.993c-0.585,-0.662 -0.877,-1.609 -0.877,-2.84l-0,-10.507c-0,-2.078 -0.289,-3.667 -0.866,-4.768c-0.577,-1.101 -1.728,-1.651 -3.452,-1.651c-1.124,0 -2.148,0.335 -3.071,1.005c-0.924,0.669 -1.601,1.589 -2.032,2.759c-0.308,0.939 -0.462,2.694 -0.462,5.265l-0,7.897c-0,1.278 -0.297,2.236 -0.889,2.875c-0.593,0.639 -1.359,0.958 -2.298,0.958c-0.908,0 -1.655,-0.331 -2.24,-0.993c-0.585,-0.662 -0.877,-1.609 -0.877,-2.84l-0,-18.219c-0,-1.201 0.262,-2.098 0.785,-2.69c0.523,-0.593 1.239,-0.889 2.147,-0.889c0.555,-0 1.055,0.131 1.501,0.392c0.447,0.262 0.805,0.655 1.074,1.178c0.27,0.523 0.404,1.162 0.404,1.917Z" style="fill-rule:nonzero;"/><path d="M694.561,145.174l0,18.219c0,1.262 -0.3,2.217 -0.9,2.863c-0.6,0.647 -1.362,0.97 -2.286,0.97c-0.924,0 -1.674,-0.331 -2.252,-0.993c-0.577,-0.662 -0.865,-1.609 -0.865,-2.84l-0,-18.034c-0,-1.247 0.288,-2.186 0.865,-2.817c0.578,-0.632 1.328,-0.947 2.252,-0.947c0.924,-0 1.686,0.315 2.286,0.947c0.6,0.631 0.9,1.508 0.9,2.632Zm-3.117,-6.512c-0.877,0 -1.628,-0.269 -2.251,-0.808c-0.624,-0.539 -0.935,-1.301 -0.935,-2.286c-0,-0.893 0.319,-1.628 0.958,-2.205c0.639,-0.578 1.381,-0.866 2.228,-0.866c0.816,-0 1.54,0.261 2.171,0.785c0.631,0.523 0.946,1.285 0.946,2.286c0,0.97 -0.307,1.728 -0.923,2.274c-0.616,0.547 -1.347,0.82 -2.194,0.82Z" style="fill-rule:nonzero;"/><path d="M717.006,163.67c-1.524,1.185 -2.998,2.074 -4.422,2.667c-1.424,0.593 -3.021,0.889 -4.791,0.889c-1.617,0 -3.037,-0.319 -4.261,-0.958c-1.223,-0.639 -2.166,-1.505 -2.828,-2.598c-0.662,-1.093 -0.993,-2.278 -0.993,-3.556c-0,-1.724 0.546,-3.194 1.639,-4.41c1.093,-1.217 2.594,-2.032 4.503,-2.448c0.4,-0.092 1.393,-0.3 2.979,-0.624c1.586,-0.323 2.944,-0.619 4.076,-0.889c1.131,-0.269 2.359,-0.596 3.683,-0.981c-0.077,-1.663 -0.412,-2.883 -1.005,-3.66c-0.593,-0.777 -1.82,-1.166 -3.683,-1.166c-1.601,-0 -2.806,0.223 -3.614,0.67c-0.808,0.446 -1.501,1.116 -2.078,2.009c-0.577,0.892 -0.985,1.481 -1.224,1.766c-0.238,0.285 -0.75,0.427 -1.535,0.427c-0.708,0 -1.32,-0.227 -1.836,-0.681c-0.516,-0.454 -0.774,-1.035 -0.774,-1.743c0,-1.109 0.393,-2.186 1.178,-3.233c0.785,-1.047 2.009,-1.909 3.671,-2.586c1.663,-0.678 3.734,-1.016 6.212,-1.016c2.771,-0 4.949,0.327 6.535,0.981c1.585,0.654 2.705,1.689 3.36,3.106c0.654,1.416 0.981,3.294 0.981,5.634c0,1.478 -0.004,2.732 -0.011,3.764c-0.008,1.031 -0.02,2.178 -0.035,3.441c-0,1.185 0.196,2.42 0.589,3.706c0.392,1.285 0.589,2.113 0.589,2.482c-0,0.647 -0.305,1.235 -0.913,1.766c-0.608,0.532 -1.297,0.797 -2.066,0.797c-0.647,0 -1.286,-0.304 -1.917,-0.912c-0.631,-0.608 -1.301,-1.489 -2.009,-2.644Zm-0.415,-9.121c-0.924,0.339 -2.267,0.697 -4.03,1.074c-1.762,0.377 -2.982,0.654 -3.66,0.831c-0.677,0.177 -1.324,0.523 -1.939,1.039c-0.616,0.516 -0.924,1.236 -0.924,2.159c-0,0.955 0.362,1.767 1.085,2.436c0.724,0.67 1.67,1.005 2.84,1.005c1.247,-0 2.398,-0.273 3.453,-0.82c1.054,-0.546 1.828,-1.251 2.32,-2.113c0.57,-0.954 0.855,-2.524 0.855,-4.71l-0,-0.901Z" style="fill-rule:nonzero;"/></g></g></svg>